<?xml version="1.0" encoding="utf-8"?>
<!-- Generator: Adobe Illustrator 19.1.0, SVG Export Plug-In . SVG Version: 6.00 Build 0)  -->
<svg version="1.1" id="Layer_1" xmlns="http://www.w3.org/2000/svg" xmlns:xlink="http://www.w3.org/1999/xlink" x="0px" y="0px"
	 viewBox="0 0 322 322" style="enable-background:new 0 0 322 322;" xml:space="preserve">
<style type="text/css">
	.Arched_x0020_Green{fill:url(#SVGID_1_);stroke:#FFFFFF;stroke-width:0.25;stroke-miterlimit:1;}
	.st0{fill:#231F20;}
	.st1{fill:#FFFFFF;}
</style>
<linearGradient id="SVGID_1_" gradientUnits="userSpaceOnUse" x1="-126.333" y1="592.5562" x2="-125.6259" y2="591.8491">
	<stop  offset="0" style="stop-color:#19AC58"/>
	<stop  offset="0.9831" style="stop-color:#18361E"/>
</linearGradient>
<circle class="st0" cx="161" cy="161" r="161"/>
<g>
	<path class="st1" d="M30.8,181c-0.4-0.4-0.3-1.4,0.2-1.6c1.8,0.1,4.9,0.2,7,0.2c1.9,0,5.3-0.1,7.7-0.2c0.6,0.2,0.5,1.1,0.1,1.6
		l-1.6,0.1c-1.4,0.1-2.2,0.5-2.2,1.1c0,0.8,1.4,4.3,3.5,9c3.8,8.4,7.8,16.9,11.7,25.2c1.6-3.4,3.4-7.2,5.2-10.9
		c0.6-1.3,1.1-2.4,1.1-2.8c0-0.3-0.2-0.9-0.5-1.8c-2.4-5.4-4.9-10.8-7.4-16.2c-1-2.1-2-3.5-4.3-3.7l-1.6-0.1
		c-0.5-0.5-0.4-1.4,0.1-1.6c2,0.1,4.5,0.2,7.2,0.2c3.4,0,5.9-0.1,7.4-0.2c0.5,0.2,0.5,1.1,0.1,1.6l-1.8,0.1
		c-2.6,0.2-2.7,0.7-1.4,3.7c1.4,3.3,3.3,7.6,5.2,11.7c1.3-2.6,2.5-5.2,4-8.8c2.4-5.7,2.1-6.5-0.1-6.6l-2-0.1
		c-0.5-0.7-0.3-1.4,0.1-1.6c1.8,0.1,3.8,0.2,6.3,0.2c2.2,0,4.9-0.1,6.5-0.2c0.5,0.2,0.5,1.1,0.1,1.6l-2,0.1c-2.8,0.2-4.1,3.2-5.5,6
		c-1.4,2.5-4.3,8.4-5.3,10.7c-0.3,0.7-0.6,1.4-0.6,1.6c0,0.3,0.1,0.8,0.5,1.6c2.3,5.2,4.7,10.3,6.9,15.4c2.1-4.7,4.1-9.5,6.1-14.2
		c1.4-3.2,4.9-12.2,5.4-13.4c0.9-2.4,2-5.3,2-6.1c0-0.9-0.8-1.5-2.2-1.6l-2-0.1c-0.5-0.6-0.5-1.4,0.1-1.6c2.6,0.1,4.4,0.2,6.5,0.2
		c2.6,0,4.5-0.1,6.3-0.2c0.5,0.2,0.6,1.1,0.1,1.6l-1.3,0.1c-3.4,0.3-4,2.4-8,11.7l-4.9,11.4c-3,6.9-5.7,13.5-8.4,20.7
		c-0.2,0.1-0.5,0.2-0.8,0.2c-0.3,0-0.7-0.1-0.9-0.2c-2.2-6-6.1-14.5-8.2-19.2c-2.4,4.9-6.5,13.6-8.4,19.2c-0.2,0.1-0.5,0.2-0.8,0.2
		c-0.3,0-0.7-0.1-1-0.2c-1.1-2.8-3.8-8.9-4.7-10.9c-4.3-9.4-8.5-18.8-12.9-28.2c-1.3-2.8-2.1-4.6-4.9-4.9L30.8,181z"/>
	<path class="st1" d="M116.5,210.5c0,8.4-5.8,14.5-14.2,14.5c-7.8,0-13.8-5.5-13.8-13.9c0-8.5,6.4-14.6,14.4-14.6
		C110.4,196.5,116.5,202.2,116.5,210.5z M102,198.6c-4.5,0-7.8,4.3-7.8,11.7c0,6.1,2.8,12.8,8.7,12.8c5.9,0,7.8-6.2,7.8-11.4
		C110.7,205.9,108.4,198.6,102,198.6z"/>
	<path class="st1" d="M122.2,204.7c0-2.6,0-3-1.8-4.2l-0.6-0.4c-0.3-0.3-0.3-1,0.1-1.2c1.6-0.5,5.1-2.3,6.8-3.3
		c0.3,0.1,0.5,0.2,0.5,0.5v3.9c0,0.3,0.1,0.5,0.2,0.6c2.4-2,4.9-4.1,7.4-4.1c1.7,0,3,1.1,3,2.7c0,2.2-1.8,3.1-2.9,3.1
		c-0.7,0-1-0.2-1.5-0.5c-1-0.7-2-1.1-3-1.1c-1.1,0-1.9,0.6-2.4,1.4c-0.7,0.9-0.9,2.9-0.9,5.2v9.2c0,4.9,0.1,5.7,2.7,5.9l2.4,0.2
		c0.5,0.3,0.3,1.5-0.1,1.7c-3.2-0.1-5.1-0.2-7.5-0.2c-2.4,0-4.5,0.1-6.2,0.2c-0.5-0.2-0.6-1.4-0.1-1.7l1.3-0.2
		c2.5-0.4,2.6-1,2.6-5.9V204.7z"/>
	<path class="st1" d="M141.4,186c0-4-0.1-4.4-2.1-5.6l-0.7-0.4c-0.3-0.2-0.3-1.1,0-1.4c1.7-0.5,4.9-1.6,7.3-2.8
		c0.3,0,0.5,0.1,0.7,0.4c-0.1,2-0.2,5.4-0.2,8.4v23.2c0,0.9,0.1,1,1.2,1c1.5,0,2.8-0.7,4.6-2.6l2.8-3c1.9-2,2.4-2.8,2.4-3.1
		s-0.3-0.5-1.5-0.7l-1.6-0.2c-0.6-0.2-0.6-1.5,0-1.7h1.6c3,0,7-0.1,10.7-0.5c0.5,0.2,0.5,1.3,0.1,1.7l-2.2,0.4
		c-1.3,0.3-2.5,0.9-4.3,2.4c-2.6,2.1-4.9,4.5-6.1,5.7c-0.8,0.7-0.9,1.1-0.5,1.6c1.1,1.6,2.2,2.8,4.5,5.4c2.6,3,5,5.6,6.3,6.9
		c0.9,0.9,2.3,1.3,3.5,1.5l0.9,0.1c0.5,0.3,0.4,1.5-0.1,1.7c-2-0.1-4.3-0.2-6.4-0.2c-2.7,0-5.1,0.1-7,0.2c-0.5-0.3-0.6-1.4-0.1-1.7
		l1.2-0.2c1-0.1,1.7-0.3,1.7-0.7c0-0.4-0.3-0.9-1.1-1.9l-7.2-8.4c-0.6-0.7-1.4-0.9-2.1-0.9c-1.2,0-1.3,0.2-1.3,2.3v3.7
		c0,4.9,0.1,5.5,2.6,5.9l1.6,0.2c0.5,0.3,0.3,1.5-0.1,1.7c-2.2-0.1-4.2-0.2-6.5-0.2c-2.4,0-4.5,0.1-6.5,0.2
		c-0.5-0.2-0.6-1.4-0.1-1.7l1.5-0.2c2.5-0.3,2.6-1,2.6-5.9V186z"/>
	<path class="st1" d="M175.8,204.7c0-2.6,0-3-1.8-4.2l-0.6-0.4c-0.3-0.3-0.3-1,0.1-1.2c1.6-0.5,5.4-2.3,7-3.3c0.3,0,0.6,0.1,0.7,0.4
		c-0.1,2.4-0.3,5.6-0.3,8.4v12.2c0,4.9,0.1,5.5,2.6,5.9l1.4,0.2c0.5,0.3,0.3,1.5-0.1,1.7c-2-0.1-4-0.2-6.3-0.2
		c-2.4,0-4.5,0.1-6.3,0.2c-0.5-0.2-0.6-1.4-0.1-1.7l1.4-0.2c2.5-0.3,2.6-1,2.6-5.9V204.7z M181.4,185.5c0,2.4-1.7,3.5-3.6,3.5
		c-2.1,0-3.4-1.6-3.4-3.4c0-2.2,1.6-3.6,3.6-3.6C180.1,182,181.4,183.6,181.4,185.5z"/>
	<path class="st1" d="M191.6,204.7c0-2.6,0-3-1.8-4.2l-0.6-0.4c-0.3-0.3-0.3-1,0.1-1.2c1.6-0.5,5.4-2.3,6.8-3.3
		c0.3,0,0.6,0.1,0.7,0.5c-0.1,1.6-0.1,2.6-0.1,3.2c0,0.4,0.3,0.7,0.7,0.7c2.8-1.8,6-3.4,9.5-3.4c5.6,0,7.9,3.8,7.9,8.4v11.6
		c0,4.9,0.1,5.5,2.6,5.9l1.5,0.2c0.5,0.3,0.3,1.5-0.1,1.7c-2-0.1-4-0.2-6.3-0.2c-2.4,0-4.5,0.1-6.3,0.2c-0.5-0.2-0.6-1.4-0.1-1.7
		l1.3-0.2c2.5-0.4,2.6-1,2.6-5.9v-10.1c0-3.8-1.8-6.7-6.3-6.7c-2.6,0-4.8,1.1-5.7,2.4c-0.9,1.1-1,2.1-1,4.1v10.3
		c0,4.9,0.1,5.5,2.6,5.9l1.2,0.2c0.5,0.3,0.3,1.5-0.1,1.7c-1.8-0.1-3.8-0.2-6.1-0.2c-2.4,0-4.5,0.1-6.3,0.2
		c-0.5-0.2-0.6-1.4-0.1-1.7l1.4-0.2c2.5-0.3,2.6-1,2.6-5.9V204.7z"/>
	<path class="st1" d="M248.5,199c0.7,0.3,0.6,2.6-0.4,2.8h-4.9c0.1,1.1,0.1,2.3,0.1,3.4c0,4.7-2.8,10.7-11.3,10.7
		c-1.2,0-2.2-0.1-3-0.2c-0.8,0.5-3,1.8-3,3.7c0,1.6,1.6,2.8,4.7,2.8c2.3,0,5.1-0.2,8-0.2c3.8,0,9.5,0.7,9.5,7.4
		c0,7.4-8,12.8-16.8,12.8c-8.3,0-11.2-4.5-11.2-7.8c0-1.1,0.3-2,0.7-2.5c1.1-1.2,3-3,4.6-4.5c0.6-0.6,1.1-1.2,0.5-1.6
		c-2.6-0.7-4.9-3-4.9-5.3c0-0.3,0.3-0.6,1-1.1c1.1-0.7,2.4-1.9,3.6-3.1c0.3-0.4,0.7-0.9,0.7-1.3c-2.3-1.2-5.1-3.8-5.1-8.2
		c0-5.8,5-10.2,11-10.2c2.6,0,4.9,0.7,6.5,1.4c2.2,0.9,2.6,1.1,4.1,1.1H248.5z M234.4,226.3c-2.2,0-4.9,0.1-5.8,0.7
		c-1.6,1-3.2,3.1-3.2,5.7c0,3.6,2.9,6.7,9,6.7c6,0,10-3.4,10-7.2c0-4.1-2.8-5.9-7.7-5.9H234.4z M238.6,206.9c0-4.6-1.9-8.4-6-8.4
		c-3.2,0-5.7,3-5.7,7.6c0,4.8,2.9,7.9,6.1,7.9C236.7,214,238.6,211.1,238.6,206.9z"/>
</g>
<g>
	<path class="st1" d="M65.7,133c2.2,0,2.7-0.2,3-0.6l0.5-1.1c1.3-0.7,2.6-1.2,3.7-1.3l0.2,0.3c-1.1,3.1-2.8,8.1-3.9,11.2l-5.6,16.4
		l0.1,0.1c3.8-5.4,6.7-7.6,8.7-9c2-1.4,3.7-2.1,5.2-2.1c2.4,0,3.3,1.8,3.3,3.7c0,3.8-2.3,9.3-4.3,12.8c-1,1.9-2.1,3.1-3.6,4.5
		c-1.8,1.8-3.3,2.1-4,2.1c-1.8,0-2-1.1-2-1.6c0-0.9,0.8-1.8,1.5-1.8c0.2,0,0.5,0.1,0.8,0.3c0.4,0.3,1,0.7,1.4,0.7
		c0.8,0,1.4-0.8,2.2-2.7c1.5-3.6,3.9-11.1,3.9-14.1c0-1-0.4-1.6-1.1-1.6c-0.8,0-1.9,0.7-3,1.5c-2.3,1.8-4.1,3.6-7,7.3
		c-2.5,3.3-5.2,8.6-6.6,11.4c-0.2,0.4-0.5,0.7-1,0.7c-0.6,0-2-0.2-1.6-1.4l9.7-29.4c1.2-3.5,1.4-4.4-3.6-4.4h-6
		c-1.8,0-1.8,0.2-2.5,2.4l-8,24.2c-1.7,5.1-1.8,6.3,1,6.5l2,0.2c0.4,0.4,0.4,1.1-0.2,1.4c-2.7-0.1-4.7-0.2-7-0.2
		c-2.2,0-4.1,0.1-6.7,0.2c-0.4-0.3-0.4-1-0.1-1.4l1.9-0.2c2.4-0.2,3.1-0.9,4.9-6.5l8.1-24.2c0.8-2.4,0.5-2.4-1.2-2.4h-4.4
		c-5.4,0-6.6,1.3-9.2,4.9c-0.5,0.2-1.1-0.1-1.3-0.5c1.4-2.2,3.2-5.6,3.9-7.3c0.2-0.3,0.8-0.3,1,0c-0.2,1,0.6,1.3,3.9,1.3H65.7z"/>
	<path class="st1" d="M99.3,150.1c0,4.2-5.4,6.9-13.3,9.1c-0.4,0.9-0.8,2.7-0.8,4.9c0,1.9,1.1,3.1,2.6,3.1c2,0,3.3-1.1,5.8-3.2
		c0.5,0,0.8,0.4,0.7,0.9c-3.3,4.1-6.5,5-8.8,5c-3.3,0-4.4-3.1-4.4-5.8c0-3.5,2.2-10.1,8.2-14.7c2.8-2.2,5-2.6,6.6-2.6
		C98.1,146.8,99.3,148.6,99.3,150.1z M90.6,151.1c-2.1,2.3-3.4,4.8-4.1,6.4c3.6-1.1,5.3-2.1,7.3-4.1c1.7-1.6,2.1-3.2,2.1-3.7
		c0-0.5-0.3-1.3-1.3-1.3C94,148.5,92.6,149,90.6,151.1z"/>
</g>
<g>
	<path class="st1" d="M97.7,267.3c0,7.1,0.1,8,4.5,8.4l1.8,0.2c0.4,0.3,0.3,1.5-0.1,1.7c-3.8-0.1-6.1-0.2-8.8-0.2
		c-2.8,0-5.3,0.1-8.2,0.2c-0.4-0.2-0.5-1.3-0.1-1.7l1.4-0.2c3.9-0.5,4.1-1.3,4.1-8.4v-24.9c0-5.7-0.1-6.9-3.2-7.2l-2.4-0.3
		c-0.5-0.4-0.4-1.4,0.1-1.7c3.6-0.5,7.8-0.5,13.4-0.5c5.6,0,9.8,0.7,13,2.7c3.1,2,5.4,5.5,5.4,10.1c0,6.2-3.8,9.3-6.8,10.7
		c-3,1.4-6.5,2-9.3,2c-0.5-0.2-0.5-1.2-0.1-1.3c7.3-1.4,9.9-5.5,9.9-11.3c0-6.5-3.8-10.8-10.9-10.8c-3.6,0-3.6,0.3-3.6,2.4V267.3z"
		/>
	<path class="st1" d="M131.6,263.4c1-0.3,1.1-0.9,1.1-2l0.1-3.1c0.1-2.5-0.7-5.9-4.9-5.9c-1.9,0-4.2,0.9-4.3,3
		c-0.1,1.1-0.1,1.9-0.7,2.3c-1,0.8-2.8,1.3-3.8,1.3c-0.6,0-0.9-0.3-0.9-0.9c0-3.5,7.6-8.3,12.6-8.3c4.9,0,7.2,2.8,7,7.9l-0.4,11.7
		c-0.1,3.1,0.5,5.9,3.1,5.9c0.7,0,1.3-0.2,1.7-0.4c0.3-0.2,0.7-0.5,0.9-0.5c0.3,0,0.5,0.4,0.5,0.9c0,0.3-2.4,3-5.7,3
		c-1.6,0-3.2-0.6-4.4-2.1c-0.3-0.4-0.7-0.9-1.1-0.9c-0.5,0-1.3,0.6-2.6,1.3c-1.5,0.8-3,1.7-4.9,1.7c-2,0-3.6-0.5-4.7-1.6
		c-1.3-1.1-2.1-2.8-2.1-4.7c0-2.6,1.3-4.2,5.6-5.7L131.6,263.4z M127.4,275.3c1.4,0,3.4-1,4.1-1.7c0.8-0.8,0.8-1.8,0.9-3.2l0.1-4
		c0-0.7-0.3-0.9-0.7-0.9c-0.4,0-1.6,0.3-2.8,0.7c-4,1.4-5.9,2.4-5.9,5C123.2,272.4,124,275.3,127.4,275.3z"/>
	<path class="st1" d="M148.9,258c0-2.6,0-3-1.8-4.2l-0.6-0.4c-0.3-0.3-0.3-1,0.1-1.2c1.6-0.5,5.1-2.3,6.8-3.3
		c0.3,0.1,0.5,0.2,0.5,0.5v3.9c0,0.3,0.1,0.5,0.2,0.6c2.4-2,4.9-4.1,7.4-4.1c1.7,0,3,1.1,3,2.7c0,2.2-1.8,3.1-2.9,3.1
		c-0.7,0-1-0.2-1.5-0.5c-1-0.7-2-1.1-3-1.1c-1.1,0-1.9,0.6-2.4,1.4c-0.7,0.9-0.9,2.9-0.9,5.2v9.2c0,4.9,0.1,5.7,2.7,5.9l2.4,0.2
		c0.5,0.3,0.3,1.5-0.1,1.7c-3.2-0.1-5.1-0.2-7.5-0.2c-2.4,0-4.5,0.1-6.2,0.2c-0.5-0.2-0.6-1.3-0.1-1.7l1.3-0.2
		c2.5-0.4,2.6-1,2.6-5.9V258z"/>
	<path class="st1" d="M176.6,253.6c-1.1,0-1.2,0.2-1.2,1.6v12.6c0,3.9,0.5,7.5,4.9,7.5c0.7,0,1.3-0.1,1.8-0.3
		c0.6-0.2,1.5-0.9,1.7-0.9c0.5,0,0.8,0.7,0.7,1.1c-1.2,1.4-3.6,3.1-7.1,3.1c-5.8,0-7-3.2-7-7.3v-15.5c0-1.8-0.1-2-1.4-2h-1.9
		c-0.4-0.3-0.5-1-0.2-1.4c2-0.6,3.6-1.5,4.3-2.1c0.9-0.8,2.2-2.6,2.8-4c0.3-0.1,1.1-0.1,1.4,0.3v3c0,1.2,0.1,1.3,1.2,1.3h7.5
		c0.8,0.6,0.7,2.4,0.1,2.8H176.6z"/>
	<path class="st1" d="M188.6,291.3c0-1.8,1.2-2.7,2.7-2.7h1.3c1.1,0,1.8-0.5,2.2-1.2c2-3,3.3-5.9,3.9-7.5c0.2-0.5,0.7-2,0.7-2.9
		c0-1.4-0.3-2.2-1.1-4.7l-5.3-14.4c-1.1-3.2-1.6-4.8-4-5.3l-1.7-0.3c-0.4-0.3-0.3-1.5,0.2-1.7c2.2,0.1,4.2,0.2,6.4,0.2
		c1.8,0,3.7-0.1,5.9-0.2c0.5,0.2,0.6,1.3,0.1,1.7l-1.7,0.3c-0.9,0.2-1.5,0.4-1.5,0.9c0,0.8,1.6,5.2,2,6.3l2.2,6.2
		c0.4,1.1,1.7,4.7,2,4.8c0.2-0.1,1.3-2.2,2.5-5l2.3-5.3c1.5-3.5,2.4-6,2.4-6.8c0-0.5-0.4-0.9-1.6-1.1l-2.1-0.3
		c-0.5-0.3-0.4-1.5,0.1-1.7c2.2,0.1,4.2,0.2,5.9,0.2c1.7,0,3.2-0.1,5.1-0.2c0.5,0.3,0.6,1.3,0.1,1.7l-1.1,0.2
		c-2.2,0.4-3.4,2.4-5.7,7.2l-3.8,7.8c-2.2,4.5-7.8,16.3-11.1,23.6c-1.1,2.6-2.8,3.2-4.3,3.2C189.6,294.2,188.6,293,188.6,291.3z"/>
</g>
</svg>
