<?xml version="1.0" encoding="UTF-8"?>
<svg width="89px" height="24px" viewBox="0 0 89 24" version="1.1" xmlns="http://www.w3.org/2000/svg" xmlns:xlink="http://www.w3.org/1999/xlink">
    <!-- Generator: Sketch 43.1 (39012) - http://www.bohemiancoding.com/sketch -->
    <title>Group 9</title>
    <desc>Created with Sketch.</desc>
    <defs></defs>
    <g id="Desktop" stroke="none" stroke-width="1" fill="none" fill-rule="evenodd">
        <g id="Events-detail" transform="translate(-695.000000, -2860.000000)" fill="#221F20">
            <g id="Group-10" transform="translate(535.000000, 2846.000000)">
                <g id="Group-9" transform="translate(160.000000, 14.000000)">
                    <g id="Group-8">
                        <polygon id="Fill-1" points="0.242084648 5.28712871 0.242084648 9.24348353 6.58470243 9.24348353 0 16.149121 0 19.3861386 13.2178218 19.3861386 13.2178218 15.4537617 6.60891089 15.4537617 13.2178218 8.5481242 13.2178218 5.28712871"></polygon>
                        <polygon id="Fill-2" points="14.980198 19.3861386 14.980198 5.28712871 20.2673267 5.28712871 20.2673267 19.3622014 14.980198 19.3622014"></polygon>
                        <path d="M27.8628304,12.6150073 C27.8336581,13.4549524 28.1410705,14.2732567 28.7208397,14.8979837 C29.779378,16.026868 31.5809523,16.1096259 32.7449032,15.0827621 C32.8030027,15.0313952 32.859141,14.9776501 32.9128279,14.9217647 C33.492597,14.2970378 33.8000095,13.4787334 33.7708372,12.6387883 L33.7708372,12.5912263 C33.7955969,11.759129 33.4884295,10.9496236 32.9128279,10.332031 C32.3786558,9.7479695 31.6093892,9.41812698 30.8045765,9.42835281 C30.006873,9.41836479 29.2452059,9.74892074 28.7208397,10.332031 C28.145238,10.9496236 27.8380707,11.759129 27.8628304,12.5912263 L27.8628304,12.6150073 Z M22.9108911,23.7445172 L22.9108911,5.59961117 L27.9854031,5.59961117 L27.9854031,7.45452948 C28.5090339,6.81624733 29.1488637,6.27618073 29.8730236,5.86120222 C30.6383678,5.45597391 31.5022606,5.25859157 32.3735078,5.29045812 C33.2207306,5.28498849 34.0583929,5.46382164 34.8249629,5.81364021 C35.5991324,6.1451474 36.2924039,6.63123112 36.8596706,7.24050045 C37.4816048,7.9096979 37.9569419,8.69447103 38.257,9.54725783 C38.6082935,10.517285 38.782592,11.5393925 38.7718056,12.5674453 L38.7718056,12.6150073 C38.7823468,13.6509079 38.6082935,14.6806253 38.257,15.6589759 C37.9569419,16.518897 37.4818499,17.3115178 36.8596706,17.9895142 C36.2867655,18.5985458 35.5952101,19.0917638 34.8249629,19.4401555 C34.0640312,19.7811751 33.23642,19.9597704 32.3980223,19.9633376 C31.5150082,19.9845027 30.6400839,19.7968705 29.848509,19.4163745 C29.1417545,19.0365918 28.5109951,18.5371908 27.9854031,17.9419522 L27.9854031,23.7920792 L22.9108911,23.7920792 L22.9108911,23.7445172 Z" id="Fill-3"></path>
                        <path d="M45.4572165,10.0728718 L47.7901847,10.0728718 C48.653383,10.0728718 49.3532734,9.8540222 49.8431968,9.41632297 C50.3489843,8.98227124 50.6261409,8.32304758 50.5897466,7.64120946 L50.5897466,7.59257621 C50.6303403,6.89614811 50.3536502,6.22014598 49.8431968,5.76882945 C49.3532734,5.33113022 48.653383,5.13659723 47.766855,5.13659723 L45.4572165,5.13659723 L45.4572165,10.0728718 Z M40.5346535,19.3861386 L40.5346535,0.881188119 L48.1401299,0.881188119 C50.4031091,0.881188119 52.1994947,1.46478708 53.5292866,2.60766839 C54.8590785,3.75054969 55.5123096,5.35544685 55.5123096,7.3737266 L55.5123096,7.42235984 C55.5484706,8.71722005 55.1980588,9.99165429 54.5091333,11.0698534 C53.8493698,12.0935832 52.9049843,12.8826577 51.8028901,13.3312994 C50.54682,13.8400031 49.2074629,14.0877895 47.8601738,14.0607981 L45.4105571,14.0607981 L45.4105571,19.3861386 L40.5346535,19.3861386 Z" id="Fill-5"></path>
                        <path d="M62.1567111,14.6465067 C62.1402827,15.0851068 62.3200145,15.5084812 62.6471115,15.8007176 C63.0109885,16.1013035 63.4761333,16.2506142 63.9466724,16.2181981 C64.6150881,16.2447204 65.2668301,16.0065109 65.7611537,15.5551408 C66.2267888,15.108191 66.4771382,14.4814791 66.4477142,13.8361033 L66.4477142,13.1484883 C65.8165689,12.8948075 65.1415328,12.7695633 64.4615928,12.7801231 C63.8507991,12.7479526 63.2468711,12.9208386 62.7451916,13.2712767 C62.3401209,13.5782477 62.1111039,14.0644897 62.1321911,14.5728336 L62.1321911,14.6465067 L62.1567111,14.6465067 Z M57.2772277,14.9657565 L57.2772277,14.8920835 C57.2772277,13.4431804 57.7921481,12.3135272 58.7974688,11.5276815 C59.8027895,10.7418358 61.2004305,10.3489129 62.9168317,10.3489129 C64.1013937,10.3346695 65.2793353,10.5257282 66.3986741,10.9137396 L66.3986741,10.6681628 C66.3986741,9.09647135 65.4423935,8.31062564 63.5053121,8.31062564 C62.1439607,8.32192217 60.7965858,8.58861856 59.5330693,9.09647135 L58.5032286,5.53560797 C60.3579227,4.78684436 62.3393853,4.40325342 64.3389927,4.40595476 C66.8400344,4.40595476 68.6545157,4.99533905 69.8314765,6.17410761 C70.8613173,7.18097243 71.3762376,8.70354849 71.3762376,10.7663935 L71.3762376,19.0668888 L66.3741541,19.0668888 L66.3741541,17.5688704 C65.2707533,18.7967543 63.8485923,19.3861386 62.1321911,19.3861386 C60.7100301,19.3861386 59.5330693,18.9932158 58.6258287,18.20737 C57.718588,17.4215243 57.2772277,16.3655442 57.2772277,14.9657565 L57.2772277,14.9657565 Z" id="Fill-7"></path>
                        <path d="M73.1386139,4.40594059 L78.3612654,4.40594059 L81.1902016,12.9819947 L83.8740642,4.40594059 L89,4.40594059 L83.7773485,18.2725745 C83.148696,19.9636274 82.4475066,21.1473645 81.6496015,21.8479435 C80.8516965,22.5485226 79.763644,22.9108911 78.3612654,22.9108911 C76.7569926,22.9021942 75.1824599,22.47774 73.7914453,21.6788382 L75.3388976,18.1759429 C76.1851606,18.6832588 76.9105289,18.9489957 77.5150024,18.9489957 C77.9756113,18.9663894 78.4132501,18.7477604 78.6755916,18.3692061 L73.1386139,4.40594059 Z" id="Fill-9"></path>
                        <polygon id="Fill-11" points="22.9108911 0 15.0285559 0 14.980198 3.52475248"></polygon>
                    </g>
                </g>
            </g>
        </g>
    </g>
</svg>