<?xml version="1.0" encoding="UTF-8"?>
<svg width="76px" height="24px" viewBox="0 0 76 24" version="1.1" xmlns="http://www.w3.org/2000/svg" xmlns:xlink="http://www.w3.org/1999/xlink">
    <!-- Generator: Sketch 43.1 (39012) - http://www.bohemiancoding.com/sketch -->
    <title>Page 1</title>
    <desc>Created with Sketch.</desc>
    <defs>
        <polygon id="path-1" points="0 25 75.0901714 25 75.0901714 0.62173913 0 0.62173913"></polygon>
    </defs>
    <g id="Desktop" stroke="none" stroke-width="1" fill="none" fill-rule="evenodd">
        <g id="Events-detail" transform="translate(-980.000000, -2859.000000)">
            <g id="Group-10" transform="translate(535.000000, 2846.000000)">
                <g id="Page-1" transform="translate(445.000000, 12.000000)">
                    <polygon id="Fill-1" fill="#221F20" points="10.5005406 1 5.2502703 3.99946495 0 7 0 13 0 19 5.2502703 21.999465 10.5005406 25 15.7497297 21.999465 21 19 21 13 21 7 15.7497297 3.99946495"></polygon>
                    <polygon id="Fill-2" fill="#221F20" points="1 8 1 19 19 19"></polygon>
                    <polygon id="Fill-3" fill="#221F20" points="1 19 19 19 19 8"></polygon>
                    <polygon id="Fill-4" fill="#221F20" points="19 19 10 3 1 19"></polygon>
                    <polygon id="Fill-5" fill="#221F20" points="5.5 11 1 19 19 19"></polygon>
                    <polygon id="Fill-6" fill="#221F20" points="1 19 19 19 14.5 11"></polygon>
                    <polygon id="Fill-7" fill="#221F20" points="10 13 1 18.4994371 10 24 19 18.4994371"></polygon>
                    <g id="Group-17">
                        <path d="M35.2098229,12.8315217 C35.2098229,11.0836957 34.1349657,9.72391304 32.1057657,9.72391304 L30.2839371,9.72391304 L30.2839371,15.9543478 L32.0905657,15.9543478 C34.0600514,15.9543478 35.2098229,14.5347826 35.2098229,12.8315217 Z M28.1646229,17.8228261 L28.1646229,7.85543478 L32.0905657,7.85543478 C35.2098229,7.85543478 37.3736514,9.84347826 37.3736514,12.8315217 C37.3736514,15.85 35.2098229,17.8228261 32.1057657,17.8228261 L28.1646229,17.8228261 Z" id="Fill-8" fill="#221F20"></path>
                        <mask id="mask-2" fill="white">
                            <use xlink:href="#path-1"></use>
                        </mask>
                        <g id="Clip-11"></g>
                        <polygon id="Fill-10" fill="#221F20" mask="url(#mask-2)" points="39.6274857 17.8217391 41.7468 17.8217391 41.7468 7.85543478 39.6274857 7.85543478"></polygon>
                        <path d="M43.77676,16.4177174 L44.9406457,14.7590217 C45.6420171,15.4916304 46.7320743,16.1188043 48.1055029,16.1188043 C49.2845886,16.1188043 49.8361314,15.5959783 49.8361314,15.0133696 C49.8361314,13.2796739 44.1046457,14.4905435 44.1046457,10.7394565 C44.1046457,9.08076087 45.5377886,7.70576087 47.8818457,7.70576087 C49.4637314,7.70576087 50.77636,8.18402174 51.7621886,9.09597826 L50.5831029,10.6796739 C49.7764171,9.93293478 48.7026457,9.58836957 47.6875029,9.58836957 C46.7917886,9.58836957 46.28476,9.9775 46.28476,10.5753261 C46.28476,12.1438043 52.0010457,11.0829348 52.0010457,14.803587 C52.0010457,16.626413 50.6873314,18.001413 48.0153886,18.001413 C46.0904171,18.001413 44.7169886,17.3590217 43.77676,16.4177174" id="Fill-12" fill="#221F20" mask="url(#mask-2)"></path>
                        <path d="M53.68716,12.846413 C53.68716,9.76815217 56.0008171,7.69097826 59.0006457,7.69097826 C61.1796743,7.69097826 62.4488743,8.87141304 63.1502457,10.1268478 L61.3295029,11.023587 C60.9115029,10.2159783 60.0157886,9.57358696 59.0006457,9.57358696 C57.1799029,9.57358696 55.8661886,10.9638043 55.8661886,12.846413 C55.8661886,14.7290217 57.1799029,16.1192391 59.0006457,16.1192391 C60.0157886,16.1192391 60.9115029,15.4768478 61.3295029,14.6692391 L63.1502457,15.5507609 C62.4488743,16.7909783 61.1796743,18.0018478 59.0006457,18.0018478 C56.0008171,18.0018478 53.68716,15.9094565 53.68716,12.846413" id="Fill-13" fill="#221F20" mask="url(#mask-2)"></path>
                        <path d="M72.9112514,12.846413 C72.9112514,10.9790217 71.7321657,9.57358696 69.8962229,9.57358696 C68.04508,9.57358696 66.8659943,10.9790217 66.8659943,12.846413 C66.8659943,14.6996739 68.04508,16.1192391 69.8962229,16.1192391 C71.7321657,16.1192391 72.9112514,14.6996739 72.9112514,12.846413 M64.6869657,12.846413 C64.6869657,9.84315217 66.8811943,7.69097826 69.8962229,7.69097826 C72.8960514,7.69097826 75.09028,9.84315217 75.09028,12.846413 C75.09028,15.8496739 72.8960514,18.0018478 69.8962229,18.0018478 C66.8811943,18.0018478 64.6869657,15.8496739 64.6869657,12.846413" id="Fill-14" fill="#221F20" mask="url(#mask-2)"></path>
                        <polygon id="Fill-15" fill="#221F20" mask="url(#mask-2)" points="10.5439143 2.19043478 1.3566 7.50021739 5.95025714 10.1556522"></polygon>
                        <polygon id="Fill-16" fill="#221F20" mask="url(#mask-2)" points="10.5439143 2.19043478 19.7312286 7.50021739 15.1375714 10.1556522"></polygon>
                    </g>
                </g>
            </g>
        </g>
    </g>
</svg>