<?xml version="1.0" encoding="UTF-8"?>
<svg width="76px" height="26px" viewBox="0 0 76 26" version="1.1" xmlns="http://www.w3.org/2000/svg" xmlns:xlink="http://www.w3.org/1999/xlink">
    <!-- Generator: Sketch 43.1 (39012) - http://www.bohemiancoding.com/sketch -->
    <title>Page 1</title>
    <desc>Created with Sketch.</desc>
    <defs></defs>
    <g id="Desktop" stroke="none" stroke-width="1" fill="none" fill-rule="evenodd">
        <g id="Events-detail" transform="translate(-844.000000, -2857.000000)">
            <g id="Group-10" transform="translate(535.000000, 2846.000000)">
                <g id="Page-1" transform="translate(309.000000, 11.000000)">
                    <g id="Group-3" fill="#221F20">
                        <path d="M24.4381091,13.2598818 C24.4369273,12.7552455 24.8434727,12.3487 25.3445636,12.3475182 C25.3091091,11.8381545 25.2429273,11.3358818 25.1507455,10.8418818 L25.1483818,10.8430636 C24.6638364,10.9742455 24.1662909,10.6847 24.0362909,10.1977909 C23.9062909,9.71088182 24.1946545,9.21215455 24.6780182,9.07979091 L24.6815636,9.07979091 C24.5161091,8.59997273 24.3222909,8.13079091 24.1036545,7.67815455 L24.1012909,7.67933636 C23.6663818,7.93224545 23.1121091,7.78215455 22.8615636,7.34606364 C22.6098364,6.90997273 22.7587455,6.35215455 23.1936545,6.09806364 C22.9123818,5.67851818 22.6039273,5.27788182 22.2742,4.89615455 C21.9196545,5.25188182 21.3452909,5.25188182 20.9919273,4.89615455 C20.6373818,4.54160909 20.6373818,3.96251818 20.9919273,3.60442727 C20.6113818,3.2747 20.2119273,2.96624545 19.7947455,2.68142727 L19.7947455,2.68260909 C19.5442,3.11751818 18.9887455,3.26879091 18.5562,3.01588182 C18.1212909,2.76415455 17.9712,2.20751818 18.2229273,1.77024545 L18.2229273,1.76788182 C17.7738364,1.54806364 17.3082,1.35424545 16.8295636,1.18642727 L16.8295636,1.18997273 C16.6995636,1.67688182 16.2008364,1.96524545 15.7174727,1.83524545 C15.2341091,1.70524545 14.9457455,1.20415455 15.0745636,0.717245455 L15.0757455,0.716063636 C14.5876545,0.621518182 14.0877455,0.555336364 13.5795636,0.517518182 C13.5795636,1.02333636 13.1730182,1.43106364 12.6731091,1.43106364 C12.1708364,1.43106364 11.7642909,1.02333636 11.7642909,0.517518182 C11.2561091,0.555336364 10.7585636,0.621518182 10.2692909,0.716063636 L10.2692909,0.717245455 C10.3981091,1.20297273 10.1121091,1.70524545 9.62756364,1.83524545 C9.14301818,1.96524545 8.64547273,1.67688182 8.51547273,1.18997273 L8.51547273,1.18642727 C8.03565455,1.35424545 7.57001818,1.54806364 7.12092727,1.76788182 L7.12092727,1.76906364 C7.37147273,2.20751818 7.22256364,2.76415455 6.79001818,3.01588182 C6.35510909,3.26879091 5.79965455,3.11751818 5.55029091,2.68260909 L5.54910909,2.68142727 C5.13192727,2.96624545 4.73247273,3.2747 4.35192727,3.60442727 C4.70765455,3.96251818 4.70765455,4.54042727 4.35310909,4.89497273 C3.99738182,5.25188182 3.4242,5.25188182 3.06965455,4.89615455 L3.06965455,4.89497273 C2.73992727,5.27788182 2.43265455,5.67851818 2.1502,6.09806364 L2.15138182,6.09806364 C2.58510909,6.35215455 2.73401818,6.90879091 2.48347273,7.34606364 C2.23174545,7.78215455 1.67747273,7.93224545 1.24374545,7.67933636 L1.24138182,7.67815455 C1.02156364,8.13079091 0.830109091,8.59997273 0.662290909,9.07979091 L0.665836364,9.07979091 C1.15038182,9.21097273 1.43756364,9.71088182 1.30756364,10.1966091 C1.17874545,10.6847 0.680018182,10.9742455 0.195472727,10.8418818 L0.194290909,10.8418818 C0.100927273,11.3347 0.0347454545,11.8369727 0.000472727273,12.3475182 C0.500381818,12.3475182 0.905745455,12.7552455 0.905745455,13.2598818 C0.906927273,13.7633364 0.500381818,14.1722455 0.000472727273,14.1722455 C0.0347454545,14.6827909 0.100927273,15.1838818 0.194290909,15.6755182 L0.195472727,15.6755182 C0.680018182,15.5455182 1.17874545,15.8350636 1.30756364,16.3196091 C1.43756364,16.8065182 1.15038182,17.3087909 0.665836364,17.4387909 L0.662290909,17.4387909 C0.827745455,17.9197909 1.02156364,18.3877909 1.24138182,18.8404273 L1.24256364,18.8392455 C1.67747273,18.5875182 2.23174545,18.7376091 2.48347273,19.1737 C2.73401818,19.6109727 2.58510909,20.1664273 2.15138182,20.4193364 L2.1502,20.4193364 C2.43265455,20.8400636 2.73992727,21.2407 3.06965455,21.6236091 C3.4242,21.2678818 3.99738182,21.2678818 4.35192727,21.6236091 C4.70765455,21.9793364 4.70765455,22.5584273 4.35192727,22.9129727 C4.73247273,23.2450636 5.13192727,23.5535182 5.54910909,23.8371545 L5.54910909,23.8359727 C5.79965455,23.3998818 6.35510909,23.2509727 6.79001818,23.5015182 C7.22256364,23.7544273 7.37147273,24.3134273 7.12092727,24.7495182 L7.12092727,24.7518818 C7.57001818,24.9717 8.03565455,25.1655182 8.51429091,25.3333364 L8.51547273,25.3286091 C8.64547273,24.8428818 9.14301818,24.5545182 9.62756364,24.6857 C10.1109273,24.8157 10.3981091,25.3144273 10.2692909,25.8013364 L10.2669273,25.8025182 C10.7585636,25.8982455 11.2561091,25.9644273 11.7642909,25.9998818 C11.7642909,25.4964273 12.1708364,25.0875182 12.6719273,25.0875182 C13.1730182,25.0875182 13.5795636,25.4964273 13.5795636,25.9987 L13.5795636,25.9998818 C14.0877455,25.9644273 14.5852909,25.8982455 15.0745636,25.8025182 L15.0745636,25.8013364 C14.9457455,25.3144273 15.2341091,24.8157 15.7162909,24.6857 C16.2008364,24.5545182 16.6983818,24.8428818 16.8283818,25.3286091 L16.8295636,25.3333364 C17.3082,25.1655182 17.7726545,24.9717 18.2229273,24.7518818 L18.2229273,24.7495182 C17.9712,24.3134273 18.1212909,23.7544273 18.5550182,23.5027 C18.9875636,23.2509727 19.5442,23.3998818 19.7947455,23.8359727 L19.7947455,23.8371545 C20.2119273,23.5535182 20.6113818,23.2450636 20.9919273,22.9141545 L20.9919273,22.9129727 C20.6373818,22.5584273 20.6373818,21.9793364 20.9919273,21.6236091 C21.3452909,21.2678818 21.9196545,21.2678818 22.2742,21.6236091 C22.6039273,21.2430636 22.9123818,20.8412455 23.1936545,20.4205182 L23.1936545,20.4193364 C22.7587455,20.1687909 22.6098364,19.6109727 22.8615636,19.1737 C23.1109273,18.7376091 23.6663818,18.5887 24.1001091,18.8392455 L24.1036545,18.8416091 C24.3222909,18.3877909 24.5161091,17.9209727 24.6815636,17.4387909 L24.6780182,17.4387909 C24.1946545,17.3087909 23.9062909,16.8077 24.0362909,16.3219727 C24.1662909,15.8350636 24.6638364,15.5455182 25.1483818,15.6755182 L25.1507455,15.6755182 C25.2429273,15.1838818 25.3091091,14.6827909 25.3445636,14.1722455 C24.8434727,14.1722455 24.4369273,13.7633364 24.4381091,13.2598818" id="Fill-1"></path>
                    </g>
                    <path d="M15.0038738,14.5873321 C14.544549,14.5873321 14.1726619,14.1818618 14.1726619,13.6816219 C14.1726619,13.1801823 14.544549,12.7747121 15.0038738,12.7747121 C15.4631987,12.7747121 15.8361926,13.1801823 15.8361926,13.6816219 C15.8361926,14.1818618 15.4631987,14.5873321 15.0038738,14.5873321 L15.0038738,14.5873321 Z M16.1494189,5 L13.8372994,5 L12,20 L14.0033204,20 L14.4349751,16.3555662 L15.5783066,16.3555662 L16.0099613,20 L18,20 L16.1494189,5 Z" id="Fill-4" fill="#FEFEFE"></path>
                    <path d="M8.50054885,5 C7.68935236,5 7.07025247,5.24887414 6.64215148,5.74899265 C6.21405049,6.24911116 6,6.91277554 6,7.74235601 L6,17.3619341 C6,18.2412894 6.19758507,18.9002133 6.59385291,19.3387059 C6.99012075,19.7795686 7.62019759,20 8.48627881,20 C9.25905598,20 9.85729967,19.7771984 10.2810099,19.3327803 C10.7047201,18.8871771 10.9165752,18.2365489 10.9165752,17.3749704 L10.9165752,12.8952358 L8.40175631,12.8952358 L8.40175631,14.6776487 L9.03732162,14.6776487 L9.03732162,17.4828158 C9.03732162,17.6511022 8.98024149,17.7897606 8.86169045,17.8940507 C8.7453348,17.9983408 8.59714599,18.0504859 8.41712404,18.0504859 C8.18441273,18.0504859 8.03402854,17.9876748 7.97145993,17.856127 C7.90998902,17.7269495 7.87815587,17.5918464 7.87815587,17.4508177 L7.87815587,7.74235601 C7.87815587,7.67243423 7.88693743,7.59066129 7.90559824,7.4958521 C7.92316136,7.4010429 7.95499451,7.31334439 8,7.23275658 C8.04500549,7.15335388 8.1064764,7.08580232 8.18221734,7.03010192 C8.25795829,6.97558663 8.36004391,6.9495141 8.48627881,6.9495141 L8.48627881,6.95069922 C8.49615807,6.95069922 8.50274424,6.9495141 8.51262349,6.9495141 C8.63995609,6.9495141 8.74204171,6.97558663 8.81778266,7.03010192 C8.8935236,7.08580232 8.95499451,7.15335388 9,7.23275658 C9.04500549,7.31334439 9.07574094,7.4010429 9.09549945,7.4958521 C9.11196487,7.59066129 9.12074643,7.67243423 9.12074643,7.74235601 L9.12074643,9.98103816 L11,9.98103816 L11,7.74235601 C11,6.91277554 10.7859495,6.24911116 10.3578485,5.74899265 C9.92864984,5.24887414 9.30954995,5 8.50054885,5" id="Fill-6" fill="#FFFFFF"></path>
                    <path d="M31.5233881,2 C31.9605368,2 32.3384301,2.06274957 32.659304,2.19053052 C32.9790598,2.31717056 33.2451504,2.49401027 33.4542215,2.71990873 C33.6632927,2.94580719 33.8108723,3.2150599 33.9003145,3.52538505 C33.9886387,3.83571021 34.0177074,4.1699943 33.9897567,4.52823731 L32.1506015,4.85225328 C32.1416573,4.56132345 32.0801657,4.31945237 31.9661269,4.12549914 C31.8520881,3.93268682 31.7000364,3.83571021 31.5099717,3.83571021 C31.3825166,3.83571021 31.2807761,3.86195094 31.2025142,3.9132915 C31.1264883,3.96577296 31.0638788,4.02966343 31.0191577,4.10496292 C30.9733185,4.17912151 30.9420138,4.2612664 30.9241253,4.3513976 C30.9051188,4.44152881 30.8961746,4.5191101 30.8961746,4.58414147 L30.8961746,9.59840274 C30.8961746,9.73074729 30.9274794,9.85852824 30.991207,9.98060468 C31.0549345,10.1026811 31.2036322,10.1642898 31.440654,10.1642898 C31.6217745,10.1642898 31.7715902,10.1140901 31.8901011,10.0159726 C32.007494,9.9167142 32.0667494,9.78779236 32.0667494,9.62692527 L32.0667494,8.11637193 L31.4261197,8.11637193 L31.4261197,6.4346834 L33.962924,6.4346834 L33.962924,9.52766686 C33.962924,10.3388477 33.7482628,10.9526526 33.3211763,11.3713634 C32.8940898,11.7900742 32.2892369,12 31.5088537,12 C30.6356742,12 29.9995166,11.7934969 29.6003808,11.3782088 C29.2001269,10.9640616 29,10.3422704 29,9.51397604 L29,4.58414147 C29,3.80262407 29.2168973,3.17741015 29.6484559,2.70621791 C30.0811326,2.23502567 30.70611,2 31.5233881,2" id="Fill-8" fill="#221F20"></path>
                    <polygon id="Fill-10" fill="#221F20" points="35 12 35 2 40 2 40 3.8674559 37.1310033 3.8674559 37.1310033 5.99373259 39.6391753 5.99373259 39.6391753 7.86118849 37.1310033 7.86118849 37.1310033 10.1313835 40 10.1313835 40 12"></polygon>
                    <polygon id="Fill-12" fill="#221F20" points="43.9326683 6.72725162 43.9326683 2 46 2 46 12 44.2044888 12 42.9351621 9.08449396 42.19202 7.18686165 42.1147132 7.18686165 42.1147132 12 40 12 40 2 41.8503741 2 43.1246883 4.90157846 43.8553616 6.72725162"></polygon>
                    <polygon id="Fill-14" fill="#221F20" points="47 12 47 2 52 2 52 3.8674559 49.1315392 3.8674559 49.1315392 5.99373259 51.6403421 5.99373259 51.6403421 7.86118849 49.1315392 7.86118849 49.1315392 10.1313835 52 10.1313835 52 12"></polygon>
                    <path d="M54.1249478,3.8674559 L54.1249478,6.22469824 L54.4534058,6.22469824 C54.6088592,6.22469824 54.7542833,6.20728877 54.8909319,6.17363045 C55.0263268,6.13997214 55.1491851,6.07613742 55.2582532,5.97980501 C55.3673214,5.88347261 55.4538237,5.75696379 55.5152528,5.59795729 C55.5779356,5.44011142 55.6092771,5.2323584 55.6092771,4.9735376 C55.6092771,4.59052925 55.5077309,4.31081708 55.3046385,4.13324048 C55.1015462,3.95566388 54.8382783,3.8674559 54.5148349,3.8674559 L54.1249478,3.8674559 Z M54.5775178,2 C55.0263268,2 55.4375261,2.04990715 55.8123694,2.14972145 C56.1872127,2.25069638 56.5106561,2.4178273 56.7814459,2.65343547 C57.0522357,2.88788301 57.26285,3.19428969 57.4145424,3.57265552 C57.5662349,3.95102136 57.6414542,4.41295265 57.6414542,4.95961003 C57.6414542,5.63857939 57.5424154,6.19452182 57.3443377,6.62627669 C57.1462599,7.05687094 56.8441287,7.40273909 56.437944,7.66155989 L58,12 L55.8286669,12 L54.54743,8.10608171 L54.1249478,8.10608171 L54.1249478,12 L52,12 L52,2 L54.5775178,2 Z" id="Fill-16" fill="#221F20"></path>
                    <path d="M60.7560022,6.61234912 L60.5616974,8.20705664 L61.4383026,8.20705664 L61.2573981,6.61234912 L61.0485762,4.58588672 L60.9648241,4.58588672 L60.7560022,6.61234912 Z M61.7163596,10.0466574 L60.2970408,10.0466574 L60.0044668,12 L58,12 L59.8380793,2 L62.1485204,2 L64,12 L62.0089336,12 L61.7163596,10.0466574 Z" id="Fill-18" fill="#221F20"></path>
                    <polygon id="Fill-20" fill="#221F20" points="65 12 65 2 67.1310033 2 67.1310033 10.1313835 70 10.1313835 70 12"></polygon>
                    <path d="M30.7565153,18.6123491 L30.5610573,20.2070566 L31.4389427,20.2070566 L31.2580045,18.6123491 L31.0491437,16.5858867 L30.965376,16.5858867 L30.7565153,18.6123491 Z M31.7170514,22.0466574 L30.2974684,22.0466574 L30.0048399,24 L28,24 L29.8373045,14 L32.1492926,14 L34,24 L32.0096798,24 L31.7170514,22.0466574 Z" id="Fill-22" fill="#221F20"></path>
                    <path d="M40,21.019165 C40,21.4709103 39.9611025,21.8804472 39.882196,22.2477755 C39.804401,22.6151038 39.6699267,22.9288159 39.4809958,23.1866302 C39.2909535,23.446726 39.0353412,23.6463609 38.711936,23.7866758 C38.3885308,23.9281314 37.9817737,24 37.4927762,24 C37.0493443,24 36.6681485,23.9326945 36.3503001,23.7992243 C36.0313403,23.6668948 35.7723939,23.4843714 35.5734608,23.2516541 C35.375639,23.0200776 35.2300511,22.7497148 35.1378084,22.4417066 C35.0455657,22.1336984 35,21.8051563 35,21.4572211 L36.8970882,21.0898928 C36.91487,21.4480949 36.9682152,21.7161761 37.0549011,21.8952772 C37.141587,22.0732375 37.3038453,22.1633584 37.5416759,22.1633584 C37.678373,22.1633584 37.7850633,22.1302761 37.8628584,22.0641113 C37.9406535,21.9990874 37.9995555,21.9146703 38.0406757,21.8108601 C38.081796,21.7081907 38.1095799,21.5849875 38.1229162,21.4446726 C38.1373639,21.303217 38.144032,21.1617614 38.144032,21.0214465 C38.144032,20.8240931 38.1295844,20.659822 38.1018004,20.5274926 C38.0751278,20.3963039 38.0262281,20.2833676 37.9573238,20.1898243 C37.8873083,20.0951403 37.7928429,20.0130048 37.6728162,19.9434178 C37.5527895,19.8726899 37.4049789,19.7996806 37.2293843,19.7243897 C36.7581685,19.5270363 36.3791954,19.3216975 36.0935764,19.1117956 C35.806846,18.8996121 35.5879084,18.6737394 35.4356524,18.4341775 C35.282285,18.1946156 35.1833741,17.9402236 35.1378084,17.6732831 C35.0911314,17.4052019 35.0689042,17.1120237 35.0689042,16.791467 C35.0689042,16.387634 35.1144699,16.0134611 35.2067126,15.670089 C35.2989553,15.3278576 35.4445432,15.0335387 35.6434763,14.7894136 C35.8424094,14.5452886 36.1002445,14.3524983 36.4192043,14.2121834 C36.738164,14.0707278 37.1226939,14 37.576128,14 C38.0562347,14 38.4529896,14.0775724 38.7675039,14.2338581 C39.0809069,14.389003 39.3287397,14.5863564 39.5087797,14.8259183 C39.6888197,15.066621 39.8155146,15.3324207 39.8888642,15.6244581 C39.9633252,15.9164956 40,16.198266 40,16.4720511 L38.144032,16.881588 C38.144032,16.7401323 38.1373639,16.6078029 38.1229162,16.4857404 C38.1095799,16.3636778 38.0795732,16.253023 38.0340076,16.153776 C37.9884419,16.0545289 37.9273172,15.9769564 37.8495221,15.9210586 C37.7717271,15.8651608 37.6650367,15.8355008 37.5272283,15.8355008 C37.3994221,15.8355008 37.2993999,15.8674424 37.2260502,15.9279033 C37.1527006,15.9895049 37.0960213,16.0647958 37.0549011,16.153776 C37.0137808,16.2438969 36.9871082,16.3442847 36.9726606,16.4583619 C36.9593243,16.5701574 36.9526561,16.6785307 36.9526561,16.7823409 C36.9526561,16.9146703 36.961547,17.0321697 36.9804401,17.1348392 C36.9982218,17.2397901 37.0437875,17.3378964 37.1182485,17.4325804 C37.1915981,17.5261237 37.2993999,17.6185261 37.4416537,17.7075063 C37.5839075,17.7976272 37.783952,17.893452 38.0417871,17.9972621 C38.4829962,18.1763632 38.833074,18.3645905 39.0897977,18.5619439 C39.3476328,18.7592973 39.5421205,18.9760438 39.6765948,19.2110427 C39.8099578,19.4471823 39.8966437,19.712982 39.9377639,20.0095825 C39.9799956,20.306183 40,20.6427105 40,21.019165" id="Fill-24" fill="#221F20"></path>
                    <path d="M46,21.019165 C46,21.4709103 45.9611111,21.8804472 45.8822222,22.2477755 C45.8044444,22.6151038 45.67,22.9288159 45.4811111,23.1866302 C45.2911111,23.446726 45.0355556,23.6463609 44.7122222,23.7866758 C44.3888889,23.9281314 43.9833333,24 43.4933333,24 C43.05,24 42.6688889,23.9326945 42.3511111,23.7992243 C42.0322222,23.6668948 41.7733333,23.4843714 41.5755556,23.2516541 C41.3766667,23.0200776 41.2311111,22.7497148 41.1388889,22.4417066 C41.0466667,22.1336984 41,21.8051563 41,21.4572211 L42.8977778,21.0898928 C42.9155556,21.4480949 42.9688889,21.7161761 43.0555556,21.8952772 C43.1422222,22.0732375 43.3033333,22.1633584 43.5411111,22.1633584 C43.6777778,22.1633584 43.7855556,22.1302761 43.8633333,22.0641113 C43.9411111,21.9990874 44,21.9146703 44.0411111,21.8108601 C44.0822222,21.7081907 44.1088889,21.5849875 44.1233333,21.4446726 C44.1377778,21.303217 44.1444444,21.1617614 44.1444444,21.0214465 C44.1444444,20.8240931 44.1311111,20.659822 44.1033333,20.5274926 C44.0755556,20.3963039 44.0266667,20.2833676 43.9577778,20.1898243 C43.8888889,20.0951403 43.7933333,20.0130048 43.6733333,19.9434178 C43.5533333,19.8726899 43.4055556,19.7996806 43.23,19.7243897 C42.7588889,19.5270363 42.38,19.3216975 42.0944444,19.1117956 C41.8077778,18.8996121 41.5888889,18.6737394 41.4366667,18.4341775 C41.2844444,18.1946156 41.1844444,17.9402236 41.1388889,17.6732831 C41.0922222,17.4052019 41.0688889,17.1120237 41.0688889,16.791467 C41.0688889,16.387634 41.1155556,16.0134611 41.2077778,15.670089 C41.3,15.3278576 41.4455556,15.0335387 41.6433333,14.7894136 C41.8422222,14.5452886 42.1011111,14.3524983 42.42,14.2121834 C42.7388889,14.0707278 43.1233333,14 43.5766667,14 C44.0566667,14 44.4533333,14.0775724 44.7677778,14.2338581 C45.0811111,14.389003 45.3288889,14.5863564 45.5088889,14.8259183 C45.6888889,15.066621 45.8155556,15.3324207 45.8888889,15.6244581 C45.9633333,15.9164956 46,16.198266 46,16.4720511 L44.1444444,16.881588 C44.1444444,16.7401323 44.1377778,16.6078029 44.1233333,16.4857404 C44.1088889,16.3636778 44.08,16.253023 44.0344444,16.153776 C43.9888889,16.0545289 43.9277778,15.9769564 43.8488889,15.9210586 C43.7722222,15.8651608 43.6655556,15.8355008 43.5277778,15.8355008 C43.4,15.8355008 43.3,15.8674424 43.2266667,15.9279033 C43.1533333,15.9895049 43.0966667,16.0647958 43.0555556,16.153776 C43.0144444,16.2438969 42.9866667,16.3442847 42.9733333,16.4583619 C42.96,16.5701574 42.9533333,16.6785307 42.9533333,16.7823409 C42.9533333,16.9146703 42.9622222,17.0321697 42.98,17.1348392 C42.9988889,17.2397901 43.0444444,17.3378964 43.1188889,17.4325804 C43.1922222,17.5261237 43.3,17.6185261 43.4422222,17.7075063 C43.5844444,17.7976272 43.7844444,17.893452 44.0422222,17.9972621 C44.4833333,18.1763632 44.8333333,18.3645905 45.09,18.5619439 C45.3477778,18.7592973 45.5433333,18.9760438 45.6755556,19.2110427 C45.8088889,19.4471823 45.8966667,19.712982 45.9377778,20.0095825 C45.9788889,20.306183 46,20.6427105 46,21.019165" id="Fill-26" fill="#221F20"></path>
                    <polygon id="Fill-28" fill="#221F20" points="47 24 47 14 52 14 52 15.8683997 49.1315392 15.8683997 49.1315392 17.9944296 51.6403421 17.9944296 51.6403421 19.8616688 49.1315392 19.8616688 49.1315392 22.1316003 52 22.1316003 52 24"></polygon>
                    <polygon id="Fill-30" fill="#221F20" points="54.8693951 22.0457236 54.4573618 20.7668562 54.0053807 19.2872229 53.9334746 19.2872229 53.9334746 24 52 24 52 14 53.806783 14 54.7872167 16.6726239 55.4560574 18.6547522 55.5416599 18.6547522 56.2253383 16.628525 57.1920757 14 59 14 59 24 57.0642426 24 57.0642426 19.3301613 57.0071743 19.3301613 56.5403555 20.8817454 56.1579977 22.0457236"></polygon>
                    <path d="M63.137931,20.7587327 C63.137931,20.3548799 63.0678161,20.0705582 62.9298851,19.9057677 C62.7908046,19.7421376 62.583908,19.6609029 62.3068966,19.6609029 L61.9482759,19.6609029 L61.9482759,22.1316003 L62.291954,22.1316003 C62.4735632,22.1316003 62.6195402,22.0956249 62.7298851,22.0236741 C62.8390805,21.9517233 62.9252874,21.8519206 62.9873563,21.7277475 C63.0494253,21.6024138 63.0896552,21.4573517 63.1091954,21.2937217 C63.1287356,21.1300917 63.137931,20.9513752 63.137931,20.7587327 L63.137931,20.7587327 Z M63.0517241,16.8443774 C63.0517241,16.4521295 62.9804598,16.1910178 62.8367816,16.0610421 C62.6931034,15.932227 62.4643678,15.8672392 62.1494253,15.8672392 L61.9482759,15.8672392 L61.9482759,17.850528 L62.191954,17.850528 C62.7655172,17.850528 63.0517241,17.5151445 63.0517241,16.8443774 L63.0517241,16.8443774 Z M63.8252874,18.7696414 C64.0551724,18.8473947 64.2436782,18.9564814 64.391954,19.100383 C64.5402299,19.2442846 64.6586207,19.4090751 64.7494253,19.5959151 C64.8402299,19.782755 64.9045977,19.9858419 64.9436782,20.2074968 C64.9804598,20.4268307 65,20.651967 65,20.8817454 C65,21.9552048 64.7666667,22.7420216 64.2977011,23.2456771 C63.8298851,23.7481722 63.1321839,24 62.2068966,24 L60,24 L60,14 L62.2494253,14 C63.137931,14 63.8034483,14.2355808 64.2482759,14.7044215 C64.691954,15.1732622 64.9149425,15.8672392 64.9149425,16.7875131 C64.9149425,16.988279 64.8931034,17.1878844 64.8494253,17.3840084 C64.8068966,17.5801323 64.7425287,17.7646513 64.6563218,17.9364048 C64.5701149,18.1093188 64.4586207,18.2625044 64.3195402,18.3959615 C64.1816092,18.5305791 64.016092,18.6315423 63.8252874,18.6976906 L63.8252874,18.7696414 Z" id="Fill-32" fill="#221F20"></path>
                    <polygon id="Fill-34" fill="#221F20" points="66 24 66 14 68.1315392 14 68.1315392 22.1316003 71 22.1316003 71 24"></polygon>
                    <polygon id="Fill-36" fill="#221F20" points="73.0733149 17.6497621 73.4387071 15.9693629 73.8774143 14 76 14 74.0098542 19.9347801 74.0098542 24 72.0043358 24 72.0043358 19.9347801 70 14 72.1367757 14 72.6346078 15.9972148 73 17.6497621"></polygon>
                </g>
            </g>
        </g>
    </g>
</svg>