<?xml version="1.0" encoding="UTF-8"?>
<svg width="168px" height="44px" viewBox="0 0 168 44" version="1.1" xmlns="http://www.w3.org/2000/svg" xmlns:xlink="http://www.w3.org/1999/xlink">
    <!-- Generator: Sketch 43.1 (39012) - http://www.bohemiancoding.com/sketch -->
    <title>Page-1</title>
    <desc>Created with Sketch.</desc>
    <defs>
        <polygon id="path-1" points="8.60723166 11.4349566 8.60723166 0.300771958 0.0172429379 0.300771958 0.0172429379 11.4349566"></polygon>
        <polygon id="path-3" points="5.98457673 0.100691425 0.272369272 0.100691425 0.272369272 25.3842131 5.98457673 25.3842131"></polygon>
    </defs>
    <g id="Symbols" stroke="none" stroke-width="1" fill="none" fill-rule="evenodd">
        <g id="Footer-Desktop" transform="translate(-1141.000000, -120.000000)">
            <g id="shopify-plus-experts">
                <g transform="translate(1141.000000, 120.000000)">
                    <g id="Page-1">
                        <g id="Tablet-Portrait">
                            <g>
                                <g id="Page-1">
                                    <path d="M108.331715,43.1933816 C108.031467,43.1933816 107.84132,42.9551526 107.889094,42.653396 L109.581433,33.0441941 C109.629207,32.7427551 109.913952,32.5045262 110.214517,32.5045262 L115.2928,32.5045262 C115.530088,32.5045262 115.704099,32.6947917 115.704099,32.9330206 C115.704099,33.2344596 115.419037,33.4888881 115.118789,33.4888881 L110.578359,33.4888881 L109.913952,37.3167505 L113.394179,37.3167505 C113.631466,37.3167505 113.805794,37.5073336 113.805794,37.7455625 C113.805794,38.0473192 113.50523,38.30143 113.220167,38.30143 L109.739625,38.30143 L109.043896,42.2083844 L113.758021,42.2083844 C113.995308,42.2083844 114.16932,42.3992852 114.16932,42.6375141 C114.16932,42.9392707 113.88489,43.1933816 113.584325,43.1933816 L108.331715,43.1933816 Z" id="Fill-1" fill="#918F8F"></path>
                                    <path d="M116.494364,43.1139719 C116.383313,43.2407097 116.241256,43.3201193 116.066929,43.3201193 C115.76668,43.3201193 115.529076,43.0818904 115.529076,42.7804514 C115.529076,42.6375141 115.57685,42.5260229 115.655946,42.4313666 L119.674341,37.6661529 L117.506793,33.15505 C117.475155,33.0918399 117.459335,33.0283122 117.459335,32.916821 C117.459335,32.615382 117.696624,32.3771531 117.997189,32.3771531 C118.218658,32.3771531 118.392669,32.5045262 118.471765,32.6633455 L120.449483,36.7132372 L123.818974,32.5839358 C123.961663,32.4251165 124.087901,32.3771531 124.246093,32.3771531 C124.546658,32.3771531 124.783946,32.615382 124.783946,32.916821 C124.783946,33.0441941 124.736805,33.1712495 124.673528,33.2506592 L120.90824,37.7137987 L123.186206,42.5581044 C123.217844,42.6054326 123.233663,42.7010418 123.233663,42.7804514 C123.233663,43.0818904 122.996375,43.3201193 122.69581,43.3201193 C122.426884,43.3201193 122.284511,43.1613001 122.221234,43.0345623 L120.164737,38.6349505 L116.494364,43.1139719 Z" id="Fill-3" fill="#918F8F"></path>
                                    <path d="M126.871701,37.7296171 L129.323996,37.7296171 C130.826821,37.7296171 131.83925,36.7767014 131.83925,35.1726266 C131.83925,34.060574 131.175159,33.4888246 130.083318,33.4888246 L127.631024,33.4888246 L126.871701,37.7296171 Z M125.985826,42.7803879 C125.938685,43.0821445 125.653623,43.3203735 125.353058,43.3203735 C125.052493,43.3203735 124.862662,43.0821445 124.91012,42.7803879 L126.618594,33.0441306 C126.666368,32.7426916 126.951114,32.5044627 127.251363,32.5044627 L130.399701,32.5044627 C131.871204,32.5044627 132.946594,33.3141233 132.946594,34.9820435 C132.946594,37.4278604 131.301396,38.7146143 129.308176,38.7146143 L126.697691,38.7146143 L125.985826,42.7803879 Z" id="Fill-5" fill="#918F8F"></path>
                                    <path d="M134.30673,43.1933816 C134.006165,43.1933816 133.816334,42.9551526 133.863792,42.653396 L135.556447,33.0441941 C135.604222,32.7427551 135.888651,32.5045262 136.189216,32.5045262 L141.267498,32.5045262 C141.504786,32.5045262 141.679114,32.6947917 141.679114,32.9330206 C141.679114,33.2344596 141.394052,33.4888881 141.093487,33.4888881 L136.553374,33.4888881 L135.888651,37.3167505 L139.369193,37.3167505 C139.606481,37.3167505 139.780493,37.5073336 139.780493,37.7455625 C139.780493,38.0473192 139.479928,38.30143 139.195182,38.30143 L135.714639,38.30143 L135.018594,42.2083844 L139.733035,42.2083844 C139.970323,42.2083844 140.144334,42.3992852 140.144334,42.6375141 C140.144334,42.9392707 139.859589,43.1933816 139.559024,43.1933816 L134.30673,43.1933816 Z" id="Fill-7" fill="#918F8F"></path>
                                    <path d="M144.335887,37.5866162 L146.978011,37.5866162 C148.385921,37.5866162 149.272113,36.4910808 149.272113,35.1881274 C149.272113,34.2037654 148.654848,33.4890787 147.658237,33.4890787 L145.063887,33.4890787 L144.335887,37.5866162 Z M143.418689,42.780642 C143.370915,43.082081 143.102305,43.32031 142.785604,43.32031 C142.500859,43.32031 142.295209,43.082081 142.342666,42.780642 L144.051458,33.0440671 C144.098599,32.742628 144.383345,32.5043991 144.684226,32.5043991 L147.832248,32.5043991 C149.39835,32.5043991 150.379458,33.6161341 150.379458,35.0613896 C150.379458,36.9036932 149.00287,38.5716134 146.962192,38.5716134 L149.161062,42.4944497 C149.20852,42.5738593 149.240158,42.6850328 149.240158,42.780642 C149.240158,43.082081 149.00287,43.32031 148.702305,43.32031 C148.544113,43.32031 148.338463,43.2409003 148.243864,43.0665167 L145.854847,38.5716134 L144.161876,38.5716134 L143.418689,42.780642 Z" id="Fill-9" fill="#918F8F"></path>
                                    <path d="M152.324588,33.5206202 C152.071164,33.5206202 151.897152,33.330037 151.897152,33.0918081 C151.897152,32.7741696 152.182215,32.5044944 152.498599,32.5044944 L159.222079,32.5044944 C159.475187,32.5044944 159.649198,32.6947599 159.649198,32.9329889 C159.649198,33.2506274 159.364452,33.5206202 159.048068,33.5206202 L156.232248,33.5206202 L154.602554,42.7804197 C154.555096,43.0821763 154.27035,43.3204053 153.969785,43.3204053 C153.66922,43.3204053 153.479074,43.0821763 153.526848,42.7804197 L155.156226,33.5206202 L152.324588,33.5206202 Z" id="Fill-11" fill="#918F8F"></path>
                                    <g id="Group-15" transform="translate(159.141243, 31.980804)">
                                        <g id="Fill-13-Clipped">
                                            <mask id="mask-2" fill="white">
                                                <use xlink:href="#path-1"></use>
                                            </mask>
                                            <g id="path-1"></g>
                                            <path d="M5.28503955,1.28576915 C3.41837288,1.28576915 2.67487006,2.28633064 2.67487006,3.23924633 C2.67487006,5.46303391 7.78447457,4.76391145 7.78447457,7.89328658 C7.78447457,10.0849927 6.29746893,11.4349566 3.40255367,11.4349566 C1.53557062,11.4349566 0.396587571,10.4185132 0.0485649716,9.3858702 C0.0172429379,9.2908963 0.0172429379,9.24325049 0.0172429379,9.19528705 C0.0172429379,8.90941238 0.23839548,8.68738302 0.523141241,8.68738302 C0.729107345,8.68738302 0.918621468,8.81443843 0.981898307,8.97325774 C1.3460565,9.79911801 2.18415819,10.4505947 3.57656497,10.4505947 C5.55428247,10.4505947 6.69294916,9.51292567 6.69294916,8.08355211 C6.69294916,5.60597129 1.56720904,6.44771349 1.56720904,3.35073747 C1.56720904,1.71489885 2.86470057,0.300771958 5.45905082,0.300771958 C6.93023727,0.300771958 8.14863277,0.984012514 8.5599322,2.01633785 C8.59157064,2.09574749 8.60738984,2.15927521 8.60738984,2.23868485 C8.60738984,2.52455956 8.38592093,2.74722419 8.10085877,2.74722419 C7.95848589,2.74722419 7.80029377,2.68337884 7.6898757,2.50899527 C7.29439547,1.87371814 6.61385312,1.28576915 5.28503955,1.28576915" id="Fill-13" fill="#918F8F" mask="url(#mask-2)"></path>
                                        </g>
                                    </g>
                                    <path d="M108.475923,24.2538962 C104.953934,24.2538962 103.560262,21.8163379 104.444556,17.2051788 C105.337708,12.5505032 107.567268,10.1907664 111.071223,10.1907664 C114.900421,10.1907664 116.320985,12.4853873 115.415494,17.2051788 C114.492918,22.013909 112.288036,24.2538962 108.475923,24.2538962 M103.571652,23.0640221 C103.630183,23.1774191 103.699787,23.2984394 103.780465,23.4207303 C103.699787,23.2984394 103.630183,23.1774191 103.571652,23.0640221 M105.126364,12.376755 L105.126364,12.376755 C105.176669,12.2919455 105.230454,12.2119006 105.283923,12.1302674 C105.230454,12.2119006 105.176669,12.2919455 105.126364,12.376755 M103.247042,22.1705048 L103.247042,22.1705048 C103.247042,22.1705048 103.250522,22.1892455 103.25685,22.2162448 C103.251155,22.1892455 103.247042,22.1705048 103.247042,22.1705048 M111.464488,8.67277163 C109.057121,8.67277163 107.082884,9.5141962 105.679087,11.1224003 L105.950544,9.70509697 C106.036601,9.25627367 105.731923,8.87764849 105.284872,8.87764849 C104.837821,8.87764849 104.387607,9.25627367 104.302183,9.70509697 L100.143946,31.3810703 C100.057889,31.8298936 100.362567,32.2085188 100.809618,32.2085188 C101.256669,32.2085188 101.706884,31.8289407 101.793256,31.3810703 L103.337528,23.3302033 C103.905437,24.3590346 105.224759,25.770938 108.18485,25.770938 C110.500465,25.770938 112.443064,25.0559336 113.95981,23.6453007 C115.524646,22.1892455 116.592443,20.0229505 117.133143,17.2042259 C117.673528,14.38836 117.43529,12.2265119 116.427607,10.7796683 C115.452194,9.38205855 113.782002,8.67277163 111.464488,8.67277163" id="Fill-16" fill="#DBC237"></path>
                                    <g id="Group-20" transform="translate(118.644068, 0.216947)">
                                        <g id="Fill-18-Clipped">
                                            <mask id="mask-4" fill="white">
                                                <use xlink:href="#path-3"></use>
                                            </mask>
                                            <g id="path-3"></g>
                                            <path d="M3.40635028,23.8655831 C2.45308475,23.8655831 1.6279548,23.5635088 2.04811299,21.3718027 L5.97001132,0.927949305 C6.0560678,0.479126013 5.75138984,0.100500842 5.304339,0.100500842 C4.85728816,0.100500842 4.40675706,0.480078928 4.32070056,0.927949305 L0.399751412,21.3718027 C-0.0966553673,23.9592864 0.868000002,25.3842131 3.11527684,25.3842131 C3.52499435,25.3842131 3.9378757,25.0367165 4.01665537,24.6253745 C4.09575141,24.2130797 3.81606779,23.8655831 3.40635028,23.8655831" id="Fill-18" fill="#DBC237" mask="url(#mask-4)"></path>
                                        </g>
                                    </g>
                                    <path d="M138.543715,16.8688948 C138.096664,16.8688948 137.64645,17.24752 137.560077,17.6963433 L137.240845,19.3626752 C136.414133,23.6720777 133.822947,24.2539915 131.396913,24.2539915 C127.073523,24.2539915 126.96532,21.7811753 127.428823,19.3626752 L129.280936,9.70582756 C129.367308,9.25700426 129.062314,8.87837909 128.615263,8.87837909 C128.168212,8.87837909 127.717998,9.25700426 127.631941,9.70582756 L125.779512,19.3626752 C125.406495,21.3088467 125.539693,22.7614079 126.187647,23.8026271 C127.000439,25.1090745 128.655128,25.7707156 131.104258,25.7707156 C133.55402,25.7707156 135.461501,25.1081216 136.775761,23.8026271 C137.823625,22.7614079 138.514292,21.3088467 138.887625,19.3626752 L139.206856,17.6963433 C139.295444,17.24752 138.990766,16.8688948 138.543715,16.8688948" id="Fill-21" fill="#DBC237"></path>
                                    <path d="M148.573631,16.2895221 C146.484863,15.5119429 144.511259,14.7775625 144.886807,12.8221795 C145.075372,11.8397234 145.869496,10.190544 149.069406,10.190544 C150.867417,10.190544 152.00197,10.6898718 152.986242,11.9140509 C153.170694,12.142433 153.380457,12.142433 153.470626,12.142433 C153.880344,12.142433 154.293225,11.7949364 154.372005,11.3835945 C154.415349,11.1599769 154.372954,11.0287921 154.275507,10.8525028 C154.271394,10.8448795 154.267281,10.8385267 154.262219,10.8318563 C153.264344,9.39898868 151.615033,8.67286693 149.361112,8.67286693 C146.075779,8.67286693 143.730106,10.2623303 143.238445,12.8221795 C142.650603,15.8864388 145.352524,16.9120937 147.737112,17.817046 C149.797722,18.5987545 151.744434,19.3372641 151.384389,21.2116493 C150.876276,23.8588491 148.112027,24.2539915 146.509225,24.2539915 C144.298965,24.2539915 142.9344,23.6501606 141.945383,22.2350808 C141.941903,22.2309515 141.938739,22.2261869 141.935575,22.2220576 C141.812818,22.0702264 141.650196,21.9933578 141.451824,21.9933578 C141.087033,21.9933578 140.637451,22.2986085 140.550445,22.752514 C140.507417,22.9751786 140.549812,23.1057281 140.647259,23.2826528 C141.305654,24.519855 143.284637,25.7716686 146.218784,25.7716686 C149.938197,25.7716686 152.486355,24.0669024 153.034332,21.2116493 C153.616163,18.1664484 150.937338,17.1690633 148.573631,16.2895221" id="Fill-23" fill="#DBC237"></path>
                                    <path d="M142.146856,11.4521726 L140.407376,11.4521726 L140.742427,9.7057958 C140.828483,9.25697249 140.523806,8.87834732 140.076755,8.87834732 C139.629704,8.87834732 139.179489,9.25697249 139.093117,9.7057958 L138.758382,11.4521726 L137.018901,11.4521726 C136.571851,11.4521726 136.122269,11.8307978 136.036213,12.2796211 C135.950156,12.7284444 136.254834,13.1070695 136.701252,13.1070695 L138.440416,13.1070695 L138.105681,14.8534464 C138.019308,15.3022697 138.324303,15.6808948 138.771354,15.6808948 C139.218405,15.6808948 139.668619,15.3022697 139.754043,14.8534464 L140.088777,13.1070695 L141.828258,13.1070695 C142.274359,13.1070695 142.724891,12.7274914 142.810947,12.2796211 C142.898585,11.8317507 142.593907,11.4521726 142.146856,11.4521726" id="Fill-25" fill="#FEFEFE"></path>
                                    <g id="Group-29" transform="translate(0.000000, 8.436727)" fill="#FEFEFE">
                                        <path d="M8.45248816,6.98904017 C7.2692113,6.3442339 6.66048814,5.80107193 6.66048814,5.05430369 C6.66048814,4.10392908 7.50586665,3.49279248 8.82455593,3.49279248 C10.3602847,3.49279248 11.7321265,4.13791642 11.7321265,4.13791642 L12.8141604,0.811287714 C12.8141604,0.811287714 11.8191322,0.0305321319 8.89194578,0.0305321319 C4.81786665,0.0305321319 1.99477062,2.37279893 1.99477062,5.66544029 C1.99477062,7.53220213 3.31345989,8.95776403 5.07129041,9.97611328 C6.49153897,10.7908562 6.99870281,11.3680055 6.99870281,12.2167357 C6.99870281,13.0991357 6.28873673,13.8119166 4.97004745,13.8119166 C3.00561808,13.8119166 1.14939209,12.7935674 1.14939209,12.7935674 L-3.1638418e-05,16.1201961 C-3.1638418e-05,16.1201961 1.71413786,17.274177 4.59829605,17.274177 C8.79070282,17.274177 11.7998328,15.2038088 11.7998328,11.4699674 C11.7998328,9.46693865 10.2783412,8.04137676 8.45248816,6.98904017" id="Fill-27"></path>
                                    </g>
                                    <path d="M25.154852,8.43333567 C23.0923435,8.43333567 21.4696091,9.41769758 20.218626,10.9112342 L20.1509198,10.8772468 L21.9429198,1.47482763 L17.2772023,1.47482763 L12.7465808,25.4053995 L17.4122983,25.4053995 L18.967643,17.2249359 C19.5763661,14.1359008 21.1652474,12.2351517 22.6528859,12.2351517 C23.7010666,12.2351517 24.1069876,12.9479326 24.1069876,13.9662819 C24.1069876,14.6110882 24.0392814,15.3918438 23.9038689,16.0369677 L22.145722,25.4053995 L26.8117559,25.4053995 L28.6372927,15.7313994 C28.8400949,14.7130501 28.9755073,13.4910946 28.9755073,12.6763516 C28.9755073,10.0288342 27.5891119,8.43333567 25.154852,8.43333567" id="Fill-30" fill="#FEFEFE"></path>
                                    <path d="M37.2255412,22.1468725 C35.6363435,22.1468725 34.9602305,20.7889677 34.9602305,19.0918248 C34.9602305,16.41032 36.3463096,12.0313548 38.8821288,12.0313548 C40.5387164,12.0313548 41.0797334,13.4572343 41.0797334,14.8488089 C41.0797334,17.7342376 39.6936542,22.1468725 37.2255412,22.1468725 M39.5247051,8.43346274 C33.9120497,8.43346274 30.1929537,13.5248913 30.1929537,19.1937868 C30.1929537,22.8256661 32.4244113,25.7447646 36.6168181,25.7447646 C42.1279141,25.7447646 45.8470101,20.7889677 45.8470101,14.9844405 C45.8470101,11.6241421 43.886061,8.43346274 39.5247051,8.43346274" id="Fill-32" fill="#FEFEFE"></path>
                                    <path d="M53.3194982,22.2146248 C52.1080632,22.2146248 51.3924025,21.5358312 51.3924025,21.5358312 L52.1700745,17.1568659 C52.7110918,14.2377676 54.2322668,12.303031 55.8553177,12.303031 C57.2752498,12.303031 57.7147075,13.626631 57.7147075,14.8825738 C57.7147075,17.9039519 55.9227073,22.2146248 53.3194982,22.2146248 M57.7824134,8.43324042 C54.6334416,8.43324042 52.8458711,11.2167072 52.8458711,11.2167072 L52.7784814,11.2167072 L53.0489898,8.70482138 L48.9242894,8.70482138 C48.7211707,10.4019642 48.3494194,12.9818246 47.9773514,14.9168788 L44.7315661,32.0585616 L49.3975998,32.0585616 L50.6821197,25.1340409 L50.7836793,25.1340409 C50.7836793,25.1340409 51.7416904,25.7448599 53.5223007,25.7448599 C58.9995436,25.7448599 62.5832271,20.1102693 62.5832271,14.4073865 C62.5832271,11.2506945 61.1971482,8.43324042 57.7824134,8.43324042" id="Fill-34" fill="#FEFEFE"></path>
                                    <path d="M69.2443795,1.71232598 C67.7570577,1.71232598 66.5734645,2.90029422 66.5734645,4.42781808 C66.5734645,5.81971029 67.4523798,6.77008485 68.7710691,6.77008485 L68.838775,6.77008485 C70.2925604,6.77008485 71.54386,5.78572295 71.5773964,4.05459277 C71.5773964,2.6966879 70.6646284,1.71232598 69.2443795,1.71232598" id="Fill-36" fill="#FEFEFE"></path>
                                    <polygon id="Fill-38" fill="#FEFEFE" points="62.719051 25.4054948 67.385085 25.4054948 70.5631641 8.80665628 65.8635932 8.80665628"></polygon>
                                    <path d="M82.430323,8.77276424 L79.184538,8.77276424 L79.3534868,7.99200866 C79.6239957,6.39682778 80.570617,4.97094825 82.1259614,4.97094825 C82.9567864,4.97094825 83.6136,5.20854192 83.6136,5.20854192 L84.5263686,1.54267522 C84.5263686,1.54267522 83.7148429,1.13514494 81.9905491,1.13514494 C80.3339618,1.13514494 78.6773739,1.61064988 77.4263911,2.69665613 C75.8371934,4.054561 75.0936904,6.02328484 74.7216228,7.99200866 L74.58621,8.77276424 L72.4224586,8.77276424 L71.7463457,12.3029993 L73.9100971,12.3029993 L71.4416679,25.4055901 L76.1077018,25.4055901 L78.5758148,12.3029993 L81.7877471,12.3029993 L82.430323,8.77276424 Z" id="Fill-40" fill="#FEFEFE"></path>
                                    <path d="M93.655349,8.80675158 C93.655349,8.80675158 90.7386032,16.1848602 89.4290894,20.2121995 L89.3616993,20.2121995 C89.2718463,18.9155989 88.2119593,8.80675158 88.2119593,8.80675158 L83.3095864,8.80675158 L86.1159143,24.0476852 C86.1833039,24.3869232 86.1494507,24.5908472 86.0143547,24.8284408 C85.4733379,25.8807774 84.560253,26.8991267 83.4785357,27.6455773 C82.5996204,28.2907012 81.6191459,28.6979138 80.8414734,28.9694948 L82.1259932,32.9412475 C83.0729312,32.7376412 85.0338802,31.9568855 86.690468,30.3953744 C88.8206825,28.3926632 90.7816314,25.3036281 92.8102868,21.0945995 L98.5238691,8.80675158 L93.655349,8.80675158 Z" id="Fill-42" fill="#FEFEFE"></path>
                                </g>
                            </g>
                        </g>
                    </g>
                </g>
            </g>
        </g>
    </g>
</svg>